<?xml version="1.0" standalone="no"?>
<!DOCTYPE svg PUBLIC "-//W3C//DTD SVG 20010904//EN" "http://www.w3.org/TR/2001/REC-SVG-20010904/DTD/svg10.dtd">
<!-- Created using Krita: https://krita.org -->
<svg xmlns="http://www.w3.org/2000/svg" 
    xmlns:xlink="http://www.w3.org/1999/xlink"
    xmlns:krita="http://krita.org/namespaces/svg/krita"
    xmlns:sodipodi="http://sodipodi.sourceforge.net/DTD/sodipodi-0.dtd"
    viewBox="0 0 480 480">
<defs/>
<circle id="shape0" transform="translate(24, 24)" r="216" cx="216" cy="216" fill="none" stroke="#000000" stroke-width="12.0024" stroke-linecap="square" stroke-linejoin="bevel"/><path id="shape1" transform="translate(72, 128)" fill="none" stroke="#000000" stroke-width="12.0024" stroke-linecap="square" stroke-linejoin="bevel" d="M0 64L144 64C112 0 80 -16 48 16C0 64 0.479995 66.4 0 64Z" sodipodi:nodetypes="cccc"/><path id="shape2" transform="translate(263.610565590707, 128)" fill="none" stroke="#000000" stroke-width="12.0024" stroke-linecap="square" stroke-linejoin="bevel" d="M0.389434 64L144.389 64C80.3894 0 40.3894 -16 24.3894 16C0.389434 64 -1.05057 62.08 0.389434 64Z" sodipodi:nodetypes="cccc"/><path id="shape3" transform="translate(72, 214)" fill="none" stroke="#000000" stroke-width="12.0024" stroke-linecap="square" stroke-linejoin="bevel" d="M0 2L336 2C240 178 152 210 72 98C-8 -14 -19.28 -30 38.16 50C38.16 53.52 25.44 37.52 0 2Z" sodipodi:nodetypes="cczcc"/><path id="shape4" transform="translate(96, 125.279998267603)" fill="none" stroke="#000000" stroke-width="12.0024" stroke-linecap="square" stroke-linejoin="bevel" d="M0 42.72C16.64 48.16 30.56 43.2 41.76 27.84C52.96 12.48 55.04 3.2 48 0" sodipodi:nodetypes="czc"/><path id="shape5" transform="translate(280.79998774855, 144)" fill="none" stroke="#000000" stroke-width="12.0024" stroke-linecap="square" stroke-linejoin="bevel" d="M0 24C24.32 24 34.72 16 31.2 0" sodipodi:nodetypes="cc"/><path id="shape6" transform="translate(144, 288)" fill="none" stroke="#000000" stroke-width="12.0024" stroke-linecap="square" stroke-linejoin="bevel" d="M0 24C59.2 -8 99.2 -8 120 24C140.8 56 148.8 72 144 72" sodipodi:nodetypes="czc"/>
</svg>